<svg width="48" height="48" viewBox="0 0 48 48" fill="none" xmlns="http://www.w3.org/2000/svg">
<g clip-path="url(#clip0_830_3284)">
<path d="M43 0H5C2.23858 0 0 2.23858 0 5V43C0 45.7614 2.23858 48 5 48H43C45.7614 48 48 45.7614 48 43V5C48 2.23858 45.7614 0 43 0Z" fill="#222222"/>
<path d="M14.8074 34.9998L8.56445 13.1816H13.6035L17.215 28.3414H17.3961L21.3805 13.1816H25.6951L29.6689 28.3734H29.8606L33.4721 13.1816H38.5112L32.2683 34.9998H27.7726L23.6177 20.7349H23.4473L19.3031 34.9998H14.8074Z" fill="#61DAFB"/>
</g>
<defs>
<clipPath id="clip0_830_3284">
<rect width="48" height="48" fill="white"/>
</clipPath>
</defs>
</svg>
